{
  "accessors": [
    {
      "bufferView": 2,
      "componentType": 5126,
      "count": 2829,
      "max": [
        26.628345489501953,
        58.44977951049805,
        39.25634765625
      ],
      "min": [
        -26.628345489501953,
        -0.6219059228897095,
        -14.000341415405273
      ],
      "type": "VEC3"
    },
    {
      "bufferView": 2,
      "byteOffset": 33948,
      "componentType": 5126,
      "count": 2829,
      "max": [
        0.9999145865440369,
        0.9997024536132813,
        0.9999200701713562
      ],
      "min": [
        -0.9999145865440369,
        -1.0,
        -0.999920129776001
      ],
      "type": "VEC3"
    },
    {
      "bufferView": 3,
      "componentType": 5126,
      "count": 2829,
      "max": [
        1.0,
        0.9983273148536682,
        1.0,
        1.0
      ],
      "min": [
        -1.0,
        -0.9997304677963257,
        -1.0,
        1.0
      ],
      "type": "VEC4"
    },
    {
      "bufferView": 1,
      "componentType": 5126,
      "count": 2829,
      "max": [
        0.9993130564689636,
        1.001834511756897
      ],
      "min": [
        0.0013124870602041483,
        0.0006266062846407294
      ],
      "type": "VEC2"
    },
    {
      "bufferView": 1,
      "byteOffset": 22632,
      "componentType": 5126,
      "count": 2829,
      "max": [
        0.9993130564689636,
        1.001834511756897
      ],
      "min": [
        0.0013124870602041483,
        0.0006266062846407294
      ],
      "type": "VEC2"
    },
    {
      "bufferView": 0,
      "componentType": 5125,
      "count": 11118,
      "type": "SCALAR"
    },
    {
      "bufferView": 2,
      "byteOffset": 67896,
      "componentType": 5126,
      "count": 2829,
      "max": [
        26.628345489501953,
        58.44977951049805,
        26.628345489501953
      ],
      "min": [
        -26.628345489501953,
        -0.6219059228897095,
        -26.628345489501953
      ],
      "type": "VEC3"
    },
    {
      "bufferView": 2,
      "byteOffset": 101844,
      "componentType": 5126,
      "count": 2829,
      "max": [
        0.9999145865440369,
        0.9997024536132813,
        0.9999200701713562
      ],
      "min": [
        -0.9999145865440369,
        -1.0,
        -0.999920129776001
      ],
      "type": "VEC3"
    },
    {
      "bufferView": 3,
      "byteOffset": 45264,
      "componentType": 5126,
      "count": 2829,
      "max": [
        1.0,
        0.9983273148536682,
        1.0,
        1.0
      ],
      "min": [
        -1.0,
        -0.9997304677963257,
        -1.0,
        1.0
      ],
      "type": "VEC4"
    },
    {
      "bufferView": 1,
      "byteOffset": 45264,
      "componentType": 5126,
      "count": 2829,
      "max": [
        0.9993130564689636,
        1.001834511756897
      ],
      "min": [
        0.0013124870602041483,
        0.0006266062846407294
      ],
      "type": "VEC2"
    },
    {
      "bufferView": 1,
      "byteOffset": 67896,
      "componentType": 5126,
      "count": 2829,
      "max": [
        0.9993130564689636,
        1.001834511756897
      ],
      "min": [
        0.0013124870602041483,
        0.0006266062846407294
      ],
      "type": "VEC2"
    },
    {
      "bufferView": 0,
      "byteOffset": 44472,
      "componentType": 5125,
      "count": 11118,
      "type": "SCALAR"
    },
    {
      "bufferView": 2,
      "byteOffset": 135792,
      "componentType": 5126,
      "count": 2829,
      "max": [
        26.628345489501953,
        58.44977951049805,
        26.628345489501953
      ],
      "min": [
        -26.628345489501953,
        -0.6219059228897095,
        -26.628345489501953
      ],
      "type": "VEC3"
    },
    {
      "bufferView": 2,
      "byteOffset": 169740,
      "componentType": 5126,
      "count": 2829,
      "max": [
        0.9999145865440369,
        0.9997024536132813,
        0.9999200701713562
      ],
      "min": [
        -0.9999145865440369,
        -1.0,
        -0.999920129776001
      ],
      "type": "VEC3"
    },
    {
      "bufferView": 3,
      "byteOffset": 90528,
      "componentType": 5126,
      "count": 2829,
      "max": [
        1.0,
        0.9983273148536682,
        1.0,
        1.0
      ],
      "min": [
        -1.0,
        -0.9997304677963257,
        -1.0,
        1.0
      ],
      "type": "VEC4"
    },
    {
      "bufferView": 1,
      "byteOffset": 90528,
      "componentType": 5126,
      "count": 2829,
      "max": [
        0.9993130564689636,
        1.001834511756897
      ],
      "min": [
        0.0013124870602041483,
        0.0006266062846407294
      ],
      "type": "VEC2"
    },
    {
      "bufferView": 1,
      "byteOffset": 113160,
      "componentType": 5126,
      "count": 2829,
      "max": [
        0.9993130564689636,
        1.001834511756897
      ],
      "min": [
        0.0013124870602041483,
        0.0006266062846407294
      ],
      "type": "VEC2"
    },
    {
      "bufferView": 0,
      "byteOffset": 88944,
      "componentType": 5125,
      "count": 11118,
      "type": "SCALAR"
    }
  ],
  "asset": {
    "extras": {
      "author": "TiraArt (https://sketchfab.com/TiraArt)",
      "license": "SKETCHFAB Standard (https://sketchfab.com/licenses)",
      "source": "https://sketchfab.com/3d-models/mini-present-boxes-27f9cae44810443c8590ea60dc357688",
      "title": "Mini Present Boxes"
    },
    "generator": "Sketchfab-15.53.0",
    "version": "2.0"
  },
  "bufferViews": [
    {
      "buffer": 0,
      "byteLength": 133416,
      "name": "floatBufferViews",
      "target": 34963
    },
    {
      "buffer": 0,
      "byteLength": 135792,
      "byteOffset": 133416,
      "byteStride": 8,
      "name": "floatBufferViews",
      "target": 34962
    },
    {
      "buffer": 0,
      "byteLength": 203688,
      "byteOffset": 269208,
      "byteStride": 12,
      "name": "floatBufferViews",
      "target": 34962
    },
    {
      "buffer": 0,
      "byteLength": 135792,
      "byteOffset": 472896,
      "byteStride": 16,
      "name": "floatBufferViews",
      "target": 34962
    }
  ],
  "buffers": [
    {
      "byteLength": 608688,
      "uri": "scene.bin"
    }
  ],
  "extensionsUsed": [
    "KHR_materials_specular"
  ],
  "images": [
    {
      "uri": "textures/present_01_baseColor.png"
    },
    {
      "uri": "textures/present_01_metallicRoughness.png"
    },
    {
      "uri": "textures/present_01_normal.png"
    },
    {
      "uri": "textures/present_02_baseColor.png"
    },
    {
      "uri": "textures/present_03_baseColor.png"
    }
  ],
  "materials": [
    {
      "doubleSided": true,
      "extensions": {
        "KHR_materials_specular": {
          "specularColorFactor": [
            1.0,
            1.0,
            1.0
          ],
          "specularFactor": 0.0
        }
      },
      "name": "present_01",
      "normalTexture": {
        "index": 2
      },
      "occlusionTexture": {
        "index": 1
      },
      "pbrMetallicRoughness": {
        "baseColorTexture": {
          "index": 0
        },
        "metallicRoughnessTexture": {
          "index": 1
        }
      }
    },
    {
      "doubleSided": true,
      "extensions": {
        "KHR_materials_specular": {
          "specularColorFactor": [
            1.0,
            1.0,
            1.0
          ],
          "specularFactor": 0.0
        }
      },
      "name": "present_02",
      "normalTexture": {
        "index": 2
      },
      "occlusionTexture": {
        "index": 1
      },
      "pbrMetallicRoughness": {
        "baseColorTexture": {
          "index": 3
        },
        "metallicRoughnessTexture": {
          "index": 1
        }
      }
    },
    {
      "doubleSided": true,
      "extensions": {
        "KHR_materials_specular": {
          "specularColorFactor": [
            1.0,
            1.0,
            1.0
          ],
          "specularFactor": 0.0
        }
      },
      "name": "present_03",
      "normalTexture": {
        "index": 2
      },
      "occlusionTexture": {
        "index": 1
      },
      "pbrMetallicRoughness": {
        "baseColorTexture": {
          "index": 4
        },
        "metallicRoughnessTexture": {
          "index": 1
        }
      }
    }
  ],
  "meshes": [
    {
      "name": "present_01_present_01_0",
      "primitives": [
        {
          "attributes": {
            "NORMAL": 1,
            "POSITION": 0,
            "TANGENT": 2,
            "TEXCOORD_0": 3,
            "TEXCOORD_1": 4
          },
          "indices": 5,
          "material": 0,
          "mode": 4
        }
      ]
    },
    {
      "name": "present_02_present_02_0",
      "primitives": [
        {
          "attributes": {
            "NORMAL": 7,
            "POSITION": 6,
            "TANGENT": 8,
            "TEXCOORD_0": 9,
            "TEXCOORD_1": 10
          },
          "indices": 11,
          "material": 1,
          "mode": 4
        }
      ]
    },
    {
      "name": "present_03_present_03_0",
      "primitives": [
        {
          "attributes": {
            "NORMAL": 13,
            "POSITION": 12,
            "TANGENT": 14,
            "TEXCOORD_0": 15,
            "TEXCOORD_1": 16
          },
          "indices": 17,
          "material": 2,
          "mode": 4
        }
      ]
    }
  ],
  "nodes": [
    {
      "children": [
        1
      ],
      "matrix": [
        1.0,
        0.0,
        0.0,
        0.0,
        0.0,
        2.220446049250313e-16,
        -1.0,
        0.0,
        0.0,
        1.0,
        2.220446049250313e-16,
        0.0,
        0.0,
        0.0,
        0.0,
        1.0
      ],
      "name": "Sketchfab_model"
    },
    {
      "children": [
        2
      ],
      "matrix": [
        0.009999999776482582,
        0.0,
        0.0,
        0.0,
        0.0,
        0.0,
        0.009999999776482582,
        0.0,
        0.0,
        -0.009999999776482582,
        0.0,
        0.0,
        0.0,
        0.0,
        0.0,
        1.0
      ],
      "name": "80608d6b0c974031949e21408c25adac.fbx"
    },
    {
      "children": [
        3,
        5,
        7
      ],
      "name": "RootNode"
    },
    {
      "children": [
        4
      ],
      "name": "present_01"
    },
    {
      "mesh": 0,
      "name": "present_01_present_01_0"
    },
    {
      "children": [
        6
      ],
      "matrix": [
        0.9729416425010354,
        0.0,
        0.23105047472105006,
        0.0,
        0.0,
        1.0,
        0.0,
        0.0,
        -0.23105047472105006,
        0.0,
        0.9729416425010354,
        0.0,
        -52.94588088989258,
        0.0,
        -14.883804321289063,
        1.0
      ],
      "name": "present_02"
    },
    {
      "mesh": 1,
      "name": "present_02_present_02_0"
    },
    {
      "children": [
        8
      ],
      "matrix": [
        0.9581175219427442,
        0.0,
        -0.2863753029615071,
        0.0,
        0.0,
        1.0,
        0.0,
        0.0,
        0.2863753029615071,
        0.0,
        0.9581175219427442,
        0.0,
        52.7844123840332,
        0.0,
        -14.883804321289063,
        1.0
      ],
      "name": "present_03"
    },
    {
      "mesh": 2,
      "name": "present_03_present_03_0"
    }
  ],
  "samplers": [
    {
      "magFilter": 9729,
      "minFilter": 9987,
      "wrapS": 10497,
      "wrapT": 10497
    }
  ],
  "scene": 0,
  "scenes": [
    {
      "name": "Sketchfab_Scene",
      "nodes": [
        0
      ]
    }
  ],
  "textures": [
    {
      "sampler": 0,
      "source": 0
    },
    {
      "sampler": 0,
      "source": 1
    },
    {
      "sampler": 0,
      "source": 2
    },
    {
      "sampler": 0,
      "source": 3
    },
    {
      "sampler": 0,
      "source": 4
    }
  ]
}
